<?xml version="1.0" encoding="utf-8"?>
<!-- Generator: Adobe Illustrator 24.1.1, SVG Export Plug-In . SVG Version: 6.00 Build 0)  -->
<svg version="1.1" id="Capa_1" xmlns="http://www.w3.org/2000/svg" xmlns:xlink="http://www.w3.org/1999/xlink" x="0px" y="0px"
	 viewBox="0 0 1080 1080" style="enable-background:new 0 0 1080 1080;" xml:space="preserve">
<style type="text/css">
	.st0{fill:#FFFFFF;}
	.st1{fill:none;stroke:#000000;stroke-width:9;stroke-miterlimit:10;}
</style>
<g>
	<g>
		<polygon class="st0" points="691.6,609.83 754.36,508.95 709.34,508.95 669.86,575.84 626.83,508.95 580.96,508.95 644.62,608.18 
			601.63,677.67 517.19,677.67 517.19,508.95 477.37,508.95 477.37,709.61 581.87,709.61 604.36,709.61 626.88,709.61 666.36,641.9 
			709.95,709.61 755.83,709.61 		"/>
		<g>
			<g>
				<path class="st0" d="M779.29,711.02v-107h16.2v94.16h48.61v12.84H779.29z"/>
				<path class="st0" d="M844.34,711.26h-65.29V603.78h16.68v94.16h48.61V711.26z M779.52,710.78h64.33v-12.36h-48.61v-94.16h-15.72
					V710.78z"/>
			</g>
			<g>
				<path class="st0" d="M878.95,712.85c-6.42,0-11.72-1.07-15.9-3.21c-4.18-2.14-7.29-4.97-9.32-8.48
					c-2.04-3.52-3.06-7.36-3.06-11.54c0-7.34,2.85-13.14,8.56-17.42c5.71-4.28,13.86-6.42,24.46-6.42h19.87v-1.37
					c0-5.91-1.61-10.34-4.82-13.3c-3.21-2.95-7.36-4.43-12.46-4.43c-4.49,0-8.38,1.1-11.69,3.29c-3.31,2.19-5.33,5.43-6.04,9.71
					h-16.2c0.51-5.5,2.37-10.22,5.58-14.14c3.21-3.92,7.28-6.93,12.23-9.02c4.94-2.09,10.37-3.13,16.28-3.13
					c10.6,0,18.8,2.78,24.61,8.33c5.81,5.55,8.71,13.12,8.71,22.7v46.62H905.7l-1.38-12.99c-2.14,4.18-5.25,7.7-9.32,10.55
					C890.92,711.43,885.57,712.85,878.95,712.85z M882.16,699.71c4.38,0,8.07-1.04,11.08-3.13c3-2.09,5.35-4.87,7.03-8.33
					c1.68-3.46,2.73-7.28,3.13-11.46h-18.04c-6.42,0-10.98,1.12-13.68,3.36c-2.7,2.24-4.05,5.04-4.05,8.41c0,3.46,1.3,6.19,3.9,8.18
					C874.13,698.71,877.67,699.71,882.16,699.71z"/>
				<path class="st0" d="M878.95,713.09c-6.43,0-11.82-1.09-16.01-3.24c-4.2-2.15-7.37-5.04-9.42-8.58
					c-2.05-3.54-3.09-7.46-3.09-11.66c0-7.38,2.91-13.31,8.66-17.61c5.72-4.29,14-6.47,24.6-6.47h19.63v-1.14
					c0-5.81-1.59-10.23-4.74-13.12c-3.15-2.9-7.29-4.37-12.3-4.37c-4.41,0-8.3,1.09-11.56,3.25c-3.24,2.14-5.24,5.36-5.94,9.55
					l-0.03,0.2h-16.67l0.02-0.26c0.51-5.52,2.41-10.33,5.63-14.27c3.22-3.94,7.37-6.99,12.32-9.09c4.95-2.09,10.46-3.15,16.37-3.15
					c10.61,0,18.95,2.82,24.77,8.4c5.83,5.58,8.79,13.27,8.79,22.87v46.86h-14.52l-1.32-12.43c-2.14,3.9-5.17,7.24-9.03,9.94
					C891.03,711.64,885.59,713.09,878.95,713.09z M883.69,666.01c-10.5,0-18.68,2.14-24.31,6.37c-5.62,4.21-8.46,10.01-8.46,17.23
					c0,4.12,1.02,7.96,3.03,11.42c2.01,3.46,5.11,6.28,9.22,8.39c4.12,2.11,9.44,3.18,15.79,3.18c6.54,0,11.89-1.43,15.91-4.24
					c4.02-2.82,7.13-6.33,9.25-10.46l0.37-0.71l1.44,13.58h13.61V664.4c0-9.47-2.91-17.04-8.64-22.53
					c-5.74-5.49-13.96-8.27-24.45-8.27c-5.85,0-11.3,1.05-16.19,3.11c-4.88,2.06-8.96,5.07-12.14,8.95
					c-3.11,3.81-4.96,8.43-5.5,13.75h15.74c0.75-4.23,2.8-7.48,6.11-9.67c3.34-2.21,7.32-3.33,11.83-3.33
					c5.13,0,9.38,1.51,12.62,4.5c3.25,2.99,4.89,7.52,4.89,13.47v1.61H883.69z M882.16,699.95c-4.52,0-8.14-1.02-10.77-3.03
					c-2.65-2.03-3.99-4.84-3.99-8.37c0-3.42,1.39-6.31,4.14-8.59c2.73-2.27,7.39-3.42,13.83-3.42h18.3l-0.03,0.26
					c-0.41,4.19-1.47,8.07-3.16,11.55c-1.69,3.49-4.08,6.32-7.11,8.42C890.34,698.88,886.57,699.95,882.16,699.95z M885.37,677.02
					c-6.33,0-10.88,1.11-13.53,3.31c-2.63,2.18-3.96,4.95-3.96,8.22c0,3.37,1.28,6.06,3.8,7.99c2.54,1.95,6.07,2.93,10.48,2.93
					c4.31,0,8-1.04,10.95-3.09c2.96-2.06,5.3-4.83,6.95-8.24c1.63-3.35,2.66-7.09,3.08-11.12H885.37z"/>
			</g>
			<g>
				<path class="st0" d="M973.72,712.85c-5.91,0-11.13-1.17-15.67-3.52c-4.54-2.34-8.13-5.66-10.78-9.94l-1.68,11.62h-14.52V600.96
					h16.2v46.01c2.45-3.57,5.81-6.73,10.09-9.48c4.28-2.75,9.78-4.13,16.51-4.13c7.34,0,13.81,1.73,19.41,5.2
					c5.6,3.46,10.01,8.2,13.22,14.22c3.21,6.01,4.81,12.84,4.81,20.48c0,7.64-1.6,14.45-4.81,20.41
					c-3.21,5.96-7.62,10.65-13.22,14.06C987.68,711.15,981.16,712.85,973.72,712.85z M970.97,698.79c6.93,0,12.63-2.37,17.12-7.11
					c4.48-4.74,6.73-10.93,6.73-18.57c0-4.99-1.02-9.42-3.06-13.3c-2.04-3.87-4.84-6.9-8.41-9.1c-3.57-2.19-7.7-3.29-12.38-3.29
					c-6.93,0-12.61,2.4-17.04,7.18c-4.43,4.79-6.65,10.96-6.65,18.5c0,7.64,2.22,13.83,6.65,18.57
					C958.36,696.42,964.04,698.79,970.97,698.79z"/>
				<path class="st0" d="M973.72,713.09c-5.92,0-11.23-1.19-15.78-3.54c-4.36-2.25-7.89-5.44-10.52-9.48l-1.62,11.18h-14.97V600.72
					h16.68v45.5c2.42-3.33,5.69-6.33,9.72-8.93c4.3-2.76,9.9-4.16,16.64-4.16c7.35,0,13.92,1.76,19.54,5.23
					c5.61,3.47,10.09,8.29,13.31,14.31c3.21,6.02,4.84,12.95,4.84,20.59c0,7.65-1.63,14.55-4.84,20.52
					c-3.21,5.97-7.69,10.73-13.31,14.15C987.79,711.36,981.17,713.09,973.72,713.09z M947.13,698.72l0.35,0.56
					c2.61,4.22,6.21,7.54,10.68,9.85c4.48,2.32,9.71,3.49,15.56,3.49c7.36,0,13.9-1.71,19.44-5.08c5.54-3.38,9.96-8.08,13.14-13.97
					c3.18-5.9,4.79-12.73,4.79-20.29c0-7.57-1.61-14.42-4.79-20.37c-3.18-5.94-7.6-10.7-13.14-14.12
					c-5.54-3.42-12.03-5.16-19.29-5.16c-6.65,0-12.16,1.38-16.38,4.09c-4.23,2.72-7.6,5.88-10.02,9.41l-0.44,0.64V601.2h-15.72
					v109.58h14.08L947.13,698.72z M970.97,699.03c-6.97,0-12.76-2.42-17.22-7.19c-4.46-4.76-6.72-11.06-6.72-18.73
					c0-7.57,2.26-13.84,6.71-18.66c4.46-4.82,10.25-7.26,17.22-7.26c4.71,0,8.91,1.12,12.51,3.32c3.58,2.2,6.44,5.3,8.49,9.19
					c2.05,3.89,3.08,8.4,3.08,13.41c0,7.67-2.29,13.97-6.79,18.74C983.75,696.61,977.93,699.03,970.97,699.03z M970.97,647.67
					c-6.83,0-12.5,2.39-16.87,7.11c-4.37,4.72-6.59,10.89-6.59,18.33c0,7.55,2.21,13.74,6.58,18.41c4.37,4.67,10.04,7.03,16.87,7.03
					c6.83,0,12.53-2.37,16.95-7.03c4.42-4.67,6.66-10.86,6.66-18.41c0-4.93-1.02-9.37-3.03-13.19c-2.01-3.82-4.81-6.85-8.32-9
					C979.71,648.76,975.59,647.67,970.97,647.67z"/>
			</g>
			<g>
				<path class="st0" d="M1021.87,711.62c-1.99,0-3.63-0.65-4.93-1.94c-1.3-1.29-1.94-2.84-1.94-4.63c0-1.86,0.65-3.43,1.94-4.73
					c1.29-1.29,2.94-1.94,4.93-1.94c1.99,0,3.62,0.65,4.88,1.94c1.26,1.3,1.89,2.87,1.89,4.73c0,1.79-0.63,3.34-1.89,4.63
					C1025.49,710.97,1023.86,711.62,1021.87,711.62z"/>
				<path class="st0" d="M1021.87,711.86c-2.05,0-3.76-0.68-5.1-2.01c-1.33-1.33-2.01-2.95-2.01-4.8c0-1.92,0.68-3.56,2.01-4.9
					c1.34-1.33,3.05-2.01,5.1-2.01s3.75,0.68,5.05,2.01c1.3,1.33,1.96,2.98,1.96,4.9c0,1.85-0.66,3.46-1.96,4.8
					C1025.62,711.18,1023.92,711.86,1021.87,711.86z M1021.87,698.61c-1.92,0-3.52,0.63-4.76,1.87c-1.24,1.24-1.87,2.78-1.87,4.56
					c0,1.72,0.63,3.22,1.87,4.46c1.24,1.24,2.85,1.87,4.76,1.87c1.92,0,3.5-0.63,4.71-1.87c1.21-1.24,1.82-2.74,1.82-4.47
					c0-1.79-0.61-3.32-1.82-4.56C1025.37,699.24,1023.79,698.61,1021.87,698.61z"/>
			</g>
		</g>
	</g>
	<g>
		<path class="st1" d="M325.24,409.09"/>
		<path class="st1" d="M414.45,416.75"/>
		<g>
			<g>
				<path class="st0" d="M585.17,465.29l-57.42-171.53c-0.75-2.24-2.53-4.02-4.77-4.77l-171.53-57.42
					c-2.74-0.92-5.71-0.22-7.74,1.82L205.42,371.69c-2.01,2.01-2.73,5.05-1.82,7.75l55.93,167.09l-17.58,17.58l-0.51-0.17
					L74.87,508.17c-0.8-0.27-1.61-0.4-2.42-0.4c-1.97,0-3.88,0.77-5.32,2.22c-2.04,2.04-2.74,5.01-1.83,7.75l57.42,171.53
					c0.37,1.1,1,2.11,1.82,2.93c0.9,0.9,2.02,1.56,3.25,1.92l171.24,57.32c2.72,0.92,5.7,0.22,7.74-1.82l138.29-138.29
					c2.04-2.04,2.74-5.01,1.82-7.75l-55.93-167.09l17.57-17.57l0.51,0.17l166.58,55.76c2.73,0.92,5.7,0.22,7.74-1.82
					C585.39,470.99,586.09,468.02,585.17,465.29z M135.85,680.87l-51.4-153.55l154.27,51.64l0,0.62c0,0.84,0.13,1.65,0.39,2.41
					l50.31,150.28L135.85,680.87z M424.74,610.26L304.7,730.3L253.45,577.2l0,0c-0.18-0.52-0.42-1.05-0.73-1.56l-0.35-0.58
					l17.86-17.85l0.51,0.17l154.99,51.88L424.74,610.26z M379,448.44L427.73,594l-145.56-48.73l-5.48-1.45l-2.42-0.78l-2.79-8.45
					l-48.72-145.56l145.55,48.73l8.57,2.54 M377.29,440.41 M380.26,425.8l-0.51-0.17l-154.99-51.89l0.99-0.99l120.03-120.03
					l52.05,155.5L380.26,425.8z M412.45,404.29l-0.14-0.41l-51.27-153.15l153.56,51.41l0.14,0.41l51.27,153.16L412.45,404.29z"/>
				<path class="st0" d="M301.44,752.02c-0.83,0-1.66-0.13-2.48-0.41l-171.24-57.32c-1.25-0.36-2.4-1.04-3.32-1.96
					c-0.84-0.84-1.48-1.88-1.86-3L65.13,517.8c-0.94-2.8-0.22-5.84,1.87-7.93c1.46-1.47,3.4-2.27,5.45-2.27
					c0.83,0,1.67,0.14,2.48,0.41l166.98,55.9l17.42-17.42l-55.9-166.98c-0.93-2.76-0.19-5.87,1.86-7.93l138.29-138.29
					c2.09-2.09,5.13-2.8,7.93-1.86l171.53,57.42c2.29,0.76,4.11,2.59,4.88,4.88l57.42,171.53c0.94,2.8,0.22,5.84-1.87,7.93
					c-2.09,2.09-5.13,2.81-7.92,1.87l-166.98-55.9l-17.41,17.41l55.9,166.98c0.94,2.8,0.22,5.84-1.87,7.93L306.89,749.74
					C305.41,751.23,303.45,752.02,301.44,752.02z M72.45,507.95c-1.96,0-3.8,0.77-5.2,2.17c-2,1.99-2.68,4.89-1.78,7.57
					l57.42,171.53c0.36,1.07,0.97,2.06,1.78,2.86c0.88,0.88,1.97,1.53,3.17,1.87l171.25,57.32c2.66,0.9,5.56,0.22,7.56-1.78
					L444.93,611.2c1.99-2,2.68-4.89,1.78-7.56l-55.97-167.19l0.08-0.08l17.65-17.65l0.61,0.2l166.58,55.76
					c2.67,0.9,5.57,0.22,7.56-1.78c2-1.99,2.68-4.89,1.78-7.56l-57.42-171.53c-0.73-2.18-2.47-3.92-4.66-4.65L351.4,231.75
					c-2.67-0.9-5.57-0.22-7.56,1.78L205.55,371.82c-1.96,1.96-2.66,4.93-1.78,7.56l55.97,167.19L242,564.31l-0.61-0.2L74.81,508.34
					C74.04,508.08,73.24,507.95,72.45,507.95z M289.7,732.56l-0.34-0.11l-153.65-51.44l-0.03-0.08L84.17,527.04l0.34,0.11
					l154.39,51.68l0,0.75c0,0.81,0.13,1.61,0.38,2.36L289.7,732.56z M135.99,680.73L289.14,732l-50.2-149.94
					c-0.26-0.79-0.39-1.62-0.4-2.47l0-0.49L84.74,527.61L135.99,680.73z M304.62,730.63l-0.09-0.27l-51.25-153.09
					c-0.17-0.51-0.41-1.02-0.71-1.52l-0.42-0.7l18.03-18.03l0.61,0.2l155.27,51.98l-1.19,1.19L304.62,730.63z M253.62,577.15
					l51.16,152.82L425.4,609.35l-155.12-51.93L252.6,575.1l0.28,0.46C253.19,576.07,253.44,576.61,253.62,577.15L253.62,577.15z
					 M428.01,594.28l-0.34-0.11l-145.56-48.73l-5.46-1.45l-2.52-0.81l-0.03-0.09l-2.79-8.45l-48.84-145.9l0.34,0.11l145.55,48.73
					l8.56,2.54l-0.1,0.34l-8.57-2.54l-145.22-48.62l48.61,145.22l2.77,8.36l2.33,0.75l5.47,1.45l145.23,48.62L378.83,448.5
					l0.34-0.11L428.01,594.28z M566.3,455.98l-0.34-0.11l-153.65-51.44l-0.17-0.49l-51.38-153.49l0.34,0.11l153.65,51.44l0.17,0.49
					L566.3,455.98z M412.59,404.15l153.14,51.27l-51.27-153.14l-153.14-51.27L412.59,404.15z M380.31,426.01l-0.61-0.2
					l-155.27-51.98l1.2-1.19L345.85,252.4l0.09,0.27l52.09,155.61L380.31,426.01z M225.08,373.67l155.12,51.93l17.41-17.41
					l-51.93-155.12L225.08,373.67z"/>
			</g>
		</g>
	</g>
</g>
</svg>
